<?xml version="1.0" encoding="UTF-8"?><svg id="Layer_13" xmlns="http://www.w3.org/2000/svg" xmlns:xlink="http://www.w3.org/1999/xlink" viewBox="0 0 450 650"><defs><style>.cls-1{fill:url(#linear-gradient-2);}.cls-2,.cls-3{fill:#fff;}.cls-4,.cls-3,.cls-5{isolation:isolate;}.cls-6{stroke-miterlimit:10;}.cls-6,.cls-7{stroke:#5e579e;}.cls-6,.cls-7,.cls-8,.cls-9,.cls-10,.cls-11{fill:none;}.cls-7{stroke-width:9px;}.cls-7,.cls-8,.cls-10{stroke-linecap:round;stroke-linejoin:round;}.cls-8{stroke-width:10px;}.cls-8,.cls-10{stroke:#fff;}.cls-12{font-family:Poppins-ExtraBold, Poppins;font-size:19.85px;}.cls-12,.cls-3{font-weight:700;}.cls-12,.cls-13{fill:#5e579e;}.cls-14{fill:#716ca9;}.cls-9{stroke:#716ca9;}.cls-10{stroke-width:7px;}.cls-3{font-family:Poppins-Bold, Poppins;font-size:27.52px;}.cls-11{stroke:#707070;}.cls-15{fill:url(#linear-gradient-3);}.cls-16{fill:url(#linear-gradient);}.cls-5{fill:#bab8d5;font-family:Poppins-ExtraLight, Poppins;font-size:14.32px;font-weight:200;}</style><linearGradient id="linear-gradient" x1="1.15" y1="650.92" x2="1.15" y2="650.31" gradientTransform="translate(-1991.64 702985.06) scale(1920 -1080)" gradientUnits="userSpaceOnUse"><stop offset="0" stop-color="#3f388c"/><stop offset=".64" stop-color="#a9a6cb"/><stop offset="1" stop-color="#fff"/></linearGradient><linearGradient id="linear-gradient-2" x1=".33" y1="650.32" x2=".33" y2="649.86" gradientTransform="translate(196.97 225181.29) scale(860.26 -346.05)" gradientUnits="userSpaceOnUse"><stop offset="0" stop-color="#17114b"/><stop offset=".7" stop-color="#7873a5"/><stop offset="1" stop-color="#928ebd"/></linearGradient><linearGradient id="linear-gradient-3" x1="1.02" y1="650.32" x2="1.02" y2="649.86" gradientTransform="translate(-931.9 225181.99) scale(860.26 -346.05)" gradientUnits="userSpaceOnUse"><stop offset="0" stop-color="#17114b"/><stop offset=".73" stop-color="#7d79a9"/><stop offset="1" stop-color="#928ebd"/></linearGradient></defs><rect id="Rectangle_39" class="cls-16" x="-35.87" y="-4.24" width="521.74" height="658.49"/><path id="Tracé_58" class="cls-1" d="m681.24,172.04c0-18.38-16.43-33.29-36.71-33.29s-36.71,14.9-36.71,33.29c.01,6.44,2.04,12.72,5.79,17.95-1.96,3.3-3,7.07-3.01,10.9,0,.43.01.86.04,1.28-3.15-1.6-6.63-2.43-10.16-2.42-7.23,0-13.6,3.36-17.32,8.46-5.73-4.86-13.01-7.51-20.53-7.45-16.43,0-29.74,12.07-29.74,26.96,0,.12,0,.23,0,.34-4.86-3.95-10.95-6.09-17.22-6.04-2.65,0-5.29.37-7.83,1.11.33-1.49.49-3,.49-4.53,0-8.61-5.19-16.13-12.89-20.12,1.16-3.43,1.75-7.02,1.75-10.64,0-19.99-17.85-36.2-39.87-36.2-18.67,0-34.34,11.65-38.68,27.39-12.16,1.78-21.44,11.34-21.44,22.86,0,.1,0,.19,0,.29-2.09.7-4.09,1.66-5.95,2.85-6.51-10.84-19.15-18.2-33.67-18.2-21.18,0-38.35,15.64-38.35,34.93,0,4.1.78,8.15,2.31,11.95-5.63,2.25-10.22,6.51-12.9,11.95-1.93-.41-3.89-.61-5.86-.61-14.12,0-25.57,10.37-25.57,23.16s11.45,23.16,25.57,23.16c4.74.02,9.4-1.19,13.53-3.51,4.07,7.9,12.92,13.38,23.18,13.38,4.45.02,8.84-1.05,12.78-3.1,3.95,2.05,8.33,3.12,12.78,3.1,10.51,0,19.54-5.75,23.47-13.96,4.36,2.69,9.38,4.11,14.5,4.09.95,0,1.89-.05,2.81-.14,4.1,2.27,8.71,3.45,13.39,3.43,5.69.03,11.24-1.72,15.88-5.01,3.1,1.14,6.38,1.73,9.68,1.72,5.69.03,11.24-1.72,15.88-5.01,3.1,1.14,6.38,1.73,9.68,1.72,7.09.07,13.92-2.68,18.99-7.65,5.06,4.97,11.89,7.72,18.99,7.65,5.49.03,10.87-1.6,15.42-4.68,3.24,1.26,6.68,1.91,10.15,1.9,6.28.05,12.38-2.1,17.25-6.06,5.42,1.67,11.22,1.67,16.64,0,4.87,3.97,10.97,6.11,17.25,6.06,4.38.02,8.7-1.02,12.61-3.01,4.67,5.52,12.03,9.08,20.3,9.08,4.83.02,9.58-1.24,13.77-3.64,1.47.23,2.96.35,4.46.35,14.12,0,25.57-10.37,25.57-23.16,0-2.05-.3-4.1-.89-6.06,3.17-3.85,4.92-8.69,4.94-13.68,0-2.83-.57-5.62-1.66-8.23,1.1-2.6,1.66-5.4,1.66-8.23,0-.67-.03-1.33-.09-1.98,9.13-3.53,15.54-11.74,15.54-21.31-.03-5.61-2.22-10.99-6.11-15.02,3.95-5.32,6.09-11.76,6.11-18.39Z"/><path id="Tracé_59" class="cls-15" d="m-252.94,172.07c0-18.38,16.43-33.29,36.71-33.29s36.71,14.9,36.71,33.29c-.01,6.44-2.04,12.72-5.79,17.95,1.96,3.3,3,7.07,3.01,10.9,0,.43-.01.86-.04,1.28,3.15-1.6,6.63-2.43,10.16-2.42,7.23,0,13.6,3.36,17.32,8.46,5.73-4.86,13.01-7.51,20.53-7.45,16.43,0,29.74,12.07,29.74,26.96,0,.12,0,.23,0,.34,4.86-3.95,10.95-6.09,17.22-6.04,2.65,0,5.29.37,7.83,1.11-.33-1.49-.49-3-.49-4.53,0-8.61,5.19-16.13,12.89-20.12-1.16-3.43-1.75-7.02-1.75-10.64,0-19.99,17.85-36.2,39.87-36.2,18.67,0,34.34,11.65,38.68,27.39,12.16,1.78,21.44,11.34,21.44,22.86,0,.1,0,.19,0,.29,2.09.7,4.09,1.66,5.95,2.85,6.51-10.84,19.15-18.2,33.67-18.2,21.18,0,38.35,15.64,38.35,34.93,0,4.1-.78,8.15-2.31,11.95,5.63,2.25,10.22,6.51,12.9,11.95,1.93-.41,3.89-.61,5.86-.61,14.12,0,25.57,10.37,25.57,23.16s-11.45,23.16-25.57,23.16c-4.74.02-9.4-1.19-13.53-3.51-4.07,7.9-12.92,13.38-23.18,13.38-4.45.02-8.84-1.05-12.78-3.1-3.95,2.05-8.33,3.12-12.78,3.1-10.51,0-19.54-5.75-23.47-13.96-4.36,2.69-9.38,4.11-14.5,4.09-.95,0-1.89-.05-2.81-.14-4.1,2.27-8.71,3.45-13.39,3.43-5.69.03-11.24-1.72-15.88-5.01-3.1,1.14-6.38,1.73-9.68,1.72-5.69.03-11.24-1.72-15.88-5.01-3.1,1.15-6.38,1.73-9.68,1.72-7.09.07-13.92-2.68-18.99-7.65-5.06,4.97-11.89,7.72-18.99,7.65-5.49.03-10.87-1.6-15.42-4.68-3.24,1.26-6.68,1.91-10.16,1.9-6.28.05-12.38-2.1-17.25-6.06-2.69.84-5.5,1.26-8.32,1.25-2.82,0-5.63-.42-8.32-1.25-4.87,3.97-10.97,6.11-17.25,6.06-4.38.02-8.7-1.02-12.61-3.01-4.67,5.52-12.03,9.08-20.3,9.08-4.83.02-9.58-1.24-13.77-3.64-1.47.23-2.96.35-4.46.35-14.12,0-25.57-10.37-25.57-23.16,0-2.05.3-4.1.89-6.06-3.17-3.85-4.92-8.69-4.94-13.68,0-2.83.57-5.62,1.66-8.23-1.1-2.6-1.66-5.4-1.66-8.23,0-.67.03-1.33.09-1.98-9.13-3.53-15.54-11.74-15.54-21.31.03-5.61,2.22-10.99,6.11-15.02-3.95-5.32-6.09-11.77-6.11-18.39Z"/><rect class="cls-6" x="205.26" y="522.09" width="39.48" height="88.26" rx="18.67" ry="18.67"/><circle class="cls-13" cx="225" cy="592.84" r="4.65"/><g id="Rectangle_41"><rect class="cls-2" x="42.26" y="310.65" width="365.47" height="42.97" rx="9.38" ry="9.38"/><rect class="cls-11" x="42.51" y="310.89" width="364.98" height="42.47" rx="9.14" ry="9.14"/></g><g id="Search_for_a_sleep_place" class="cls-4"><text class="cls-5" transform="translate(63.99 337.31)"><tspan x="0" y="0">Search for a sleep place</tspan></text></g><g id="Search_2"><g id="Groupe_7"><g id="Groupe_6"><g id="Groupe_5"><path id="Tracé_21" class="cls-14" d="m392.72,341.23c-.25.22-.62.2-.85-.04l-4.58-5.05c-.22-.25-.2-.62.04-.84l1.99-1.8c.24-.22.62-.2.84.04l4.58,5.05c.22.24.2.62-.04.84l-1.99,1.8Z"/></g></g></g><g id="Groupe_8"><path id="Tracé_22" class="cls-14" d="m376.62,329.11c0-3.65,2.97-6.6,6.61-6.59,3.65,0,6.6,2.97,6.59,6.61,0,3.65-2.97,6.6-6.61,6.59-.73,0-1.45-.12-2.14-.36-2.66-.92-4.45-3.43-4.44-6.25m1.79,0c0,2.05,1.3,3.88,3.24,4.56,2.52.86,5.26-.48,6.13-2.99.17-.5.26-1.03.26-1.56,0-2.05-1.3-3.88-3.24-4.56-2.51-.87-5.25.46-6.12,2.97,0,0,0,0,0,0h0c-.18.51-.27,1.04-.27,1.58h0Z"/></g></g><path id="Tracé_57" class="cls-9" d="m364.44,315.75v32.93"/><g id="Looking_for_a_place_to_sleep_" class="cls-4"><text class="cls-3" transform="translate(26.84 275.56)"><tspan x="0" y="0">Looking for a place to sleep?</tspan></text></g><rect class="cls-2" x="405.32" y="21.84" width="28.32" height="2.23" rx="1.11" ry="1.11"/><rect class="cls-2" x="387.06" y="29.58" width="46.58" height="2.23" rx="1.11" ry="1.11"/><path class="cls-8" d="m32.83,21.47c1.1.59,1.96,1.41,2.55,2.47.6,1.06.89,2.27.89,3.63s-.3,2.55-.9,3.61c-.6,1.06-1.46,1.89-2.56,2.49s-2.38.9-3.84.9h-5.54v-13.99h5.54c1.47,0,2.76.29,3.86.88Zm-1.48,8.74c.65-.62.97-1.5.97-2.64s-.32-2.04-.97-2.67c-.65-.63-1.54-.94-2.68-.94h-1.35v7.18h1.35c1.14,0,2.03-.31,2.68-.93Z"/><path class="cls-8" d="m41.12,33.79c-1.1-.62-1.97-1.47-2.61-2.56s-.96-2.33-.96-3.7.32-2.61.96-3.7,1.51-1.94,2.61-2.55c1.1-.61,2.3-.91,3.61-.91s2.53.3,3.62.91c1.09.61,1.96,1.46,2.59,2.55.64,1.09.95,2.33.95,3.7s-.32,2.61-.95,3.7c-.63,1.09-1.5,1.94-2.6,2.56s-2.3.92-3.61.92-2.51-.31-3.61-.92Zm5.96-3.66c.58-.65.86-1.52.86-2.6s-.29-1.99-.86-2.63c-.58-.64-1.36-.96-2.35-.96s-1.79.32-2.36.96c-.57.64-.85,1.52-.85,2.63s.28,1.97.85,2.61c.57.64,1.36.96,2.36.96s1.78-.32,2.35-.97Z"/><path class="cls-8" d="m63.04,21.47c1.1.59,1.96,1.41,2.55,2.47.6,1.06.89,2.27.89,3.63s-.3,2.55-.9,3.61c-.6,1.06-1.46,1.89-2.56,2.49s-2.38.9-3.84.9h-5.54v-13.99h5.54c1.47,0,2.76.29,3.86.88Zm-1.48,8.74c.65-.62.97-1.5.97-2.64s-.32-2.04-.97-2.67c-.65-.63-1.54-.94-2.68-.94h-1.35v7.18h1.35c1.14,0,2.03-.31,2.68-.93Z"/><path class="cls-8" d="m71.32,33.79c-1.1-.62-1.97-1.47-2.61-2.56s-.96-2.33-.96-3.7.32-2.61.96-3.7,1.51-1.94,2.61-2.55c1.1-.61,2.3-.91,3.61-.91s2.53.3,3.62.91c1.09.61,1.96,1.46,2.59,2.55.64,1.09.95,2.33.95,3.7s-.32,2.61-.95,3.7c-.63,1.09-1.5,1.94-2.6,2.56s-2.3.92-3.61.92-2.51-.31-3.61-.92Zm5.96-3.66c.58-.65.86-1.52.86-2.6s-.29-1.99-.86-2.63c-.58-.64-1.36-.96-2.35-.96s-1.79.32-2.36.96c-.57.64-.85,1.52-.85,2.63s.28,1.97.85,2.61c.57.64,1.36.96,2.36.96s1.78-.32,2.35-.97Z"/><path class="cls-8" d="m84.08,34.17c-.42-.38-.63-.86-.63-1.44s.21-1.06.63-1.45c.42-.38.97-.57,1.66-.57s1.22.19,1.64.57c.42.38.63.87.63,1.45s-.21,1.05-.63,1.43c-.42.38-.96.58-1.64.58s-1.24-.19-1.66-.57Z"/><path class="cls-7" d="m32.83,21.47c1.1.59,1.96,1.41,2.55,2.47.6,1.06.89,2.27.89,3.63s-.3,2.55-.9,3.61c-.6,1.06-1.46,1.89-2.56,2.49s-2.38.9-3.84.9h-5.54v-13.99h5.54c1.47,0,2.76.29,3.86.88Zm-1.48,8.74c.65-.62.97-1.5.97-2.64s-.32-2.04-.97-2.67c-.65-.63-1.54-.94-2.68-.94h-1.35v7.18h1.35c1.14,0,2.03-.31,2.68-.93Z"/><path class="cls-7" d="m41.12,33.79c-1.1-.62-1.97-1.47-2.61-2.56s-.96-2.33-.96-3.7.32-2.61.96-3.7,1.51-1.94,2.61-2.55c1.1-.61,2.3-.91,3.61-.91s2.53.3,3.62.91c1.09.61,1.96,1.46,2.59,2.55.64,1.09.95,2.33.95,3.7s-.32,2.61-.95,3.7c-.63,1.09-1.5,1.94-2.6,2.56s-2.3.92-3.61.92-2.51-.31-3.61-.92Zm5.96-3.66c.58-.65.86-1.52.86-2.6s-.29-1.99-.86-2.63c-.58-.64-1.36-.96-2.35-.96s-1.79.32-2.36.96c-.57.64-.85,1.52-.85,2.63s.28,1.97.85,2.61c.57.64,1.36.96,2.36.96s1.78-.32,2.35-.97Z"/><path class="cls-7" d="m63.04,21.47c1.1.59,1.96,1.41,2.55,2.47.6,1.06.89,2.27.89,3.63s-.3,2.55-.9,3.61c-.6,1.06-1.46,1.89-2.56,2.49s-2.38.9-3.84.9h-5.54v-13.99h5.54c1.47,0,2.76.29,3.86.88Zm-1.48,8.74c.65-.62.97-1.5.97-2.64s-.32-2.04-.97-2.67c-.65-.63-1.54-.94-2.68-.94h-1.35v7.18h1.35c1.14,0,2.03-.31,2.68-.93Z"/><path class="cls-7" d="m71.32,33.79c-1.1-.62-1.97-1.47-2.61-2.56s-.96-2.33-.96-3.7.32-2.61.96-3.7,1.51-1.94,2.61-2.55c1.1-.61,2.3-.91,3.61-.91s2.53.3,3.62.91c1.09.61,1.96,1.46,2.59,2.55.64,1.09.95,2.33.95,3.7s-.32,2.61-.95,3.7c-.63,1.09-1.5,1.94-2.6,2.56s-2.3.92-3.61.92-2.51-.31-3.61-.92Zm5.96-3.66c.58-.65.86-1.52.86-2.6s-.29-1.99-.86-2.63c-.58-.64-1.36-.96-2.35-.96s-1.79.32-2.36.96c-.57.64-.85,1.52-.85,2.63s.28,1.97.85,2.61c.57.64,1.36.96,2.36.96s1.78-.32,2.35-.97Z"/><path class="cls-7" d="m84.08,34.17c-.42-.38-.63-.86-.63-1.44s.21-1.06.63-1.45c.42-.38.97-.57,1.66-.57s1.22.19,1.64.57c.42.38.63.87.63,1.45s-.21,1.05-.63,1.43c-.42.38-.96.58-1.64.58s-1.24-.19-1.66-.57Z"/><path class="cls-10" d="m32.83,21.47c1.1.59,1.96,1.41,2.55,2.47.6,1.06.89,2.27.89,3.63s-.3,2.55-.9,3.61c-.6,1.06-1.46,1.89-2.56,2.49s-2.38.9-3.84.9h-5.54v-13.99h5.54c1.47,0,2.76.29,3.86.88Zm-1.48,8.74c.65-.62.97-1.5.97-2.64s-.32-2.04-.97-2.67c-.65-.63-1.54-.94-2.68-.94h-1.35v7.18h1.35c1.14,0,2.03-.31,2.68-.93Z"/><path class="cls-10" d="m41.12,33.79c-1.1-.62-1.97-1.47-2.61-2.56s-.96-2.33-.96-3.7.32-2.61.96-3.7,1.51-1.94,2.61-2.55c1.1-.61,2.3-.91,3.61-.91s2.53.3,3.62.91c1.09.61,1.96,1.46,2.59,2.55.64,1.09.95,2.33.95,3.7s-.32,2.61-.95,3.7c-.63,1.09-1.5,1.94-2.6,2.56s-2.3.92-3.61.92-2.51-.31-3.61-.92Zm5.96-3.66c.58-.65.86-1.52.86-2.6s-.29-1.99-.86-2.63c-.58-.64-1.36-.96-2.35-.96s-1.79.32-2.36.96c-.57.64-.85,1.52-.85,2.63s.28,1.97.85,2.61c.57.64,1.36.96,2.36.96s1.78-.32,2.35-.97Z"/><path class="cls-10" d="m63.04,21.47c1.1.59,1.96,1.41,2.55,2.47.6,1.06.89,2.27.89,3.63s-.3,2.55-.9,3.61c-.6,1.06-1.46,1.89-2.56,2.49s-2.38.9-3.84.9h-5.54v-13.99h5.54c1.47,0,2.76.29,3.86.88Zm-1.48,8.74c.65-.62.97-1.5.97-2.64s-.32-2.04-.97-2.67c-.65-.63-1.54-.94-2.68-.94h-1.35v7.18h1.35c1.14,0,2.03-.31,2.68-.93Z"/><path class="cls-10" d="m71.32,33.79c-1.1-.62-1.97-1.47-2.61-2.56s-.96-2.33-.96-3.7.32-2.61.96-3.7,1.51-1.94,2.61-2.55c1.1-.61,2.3-.91,3.61-.91s2.53.3,3.62.91c1.09.61,1.96,1.46,2.59,2.55.64,1.09.95,2.33.95,3.7s-.32,2.61-.95,3.7c-.63,1.09-1.5,1.94-2.6,2.56s-2.3.92-3.61.92-2.51-.31-3.61-.92Zm5.96-3.66c.58-.65.86-1.52.86-2.6s-.29-1.99-.86-2.63c-.58-.64-1.36-.96-2.35-.96s-1.79.32-2.36.96c-.57.64-.85,1.52-.85,2.63s.28,1.97.85,2.61c.57.64,1.36.96,2.36.96s1.78-.32,2.35-.97Z"/><path class="cls-10" d="m84.08,34.17c-.42-.38-.63-.86-.63-1.44s.21-1.06.63-1.45c.42-.38.97-.57,1.66-.57s1.22.19,1.64.57c.42.38.63.87.63,1.45s-.21,1.05-.63,1.43c-.42.38-.96.58-1.64.58s-1.24-.19-1.66-.57Z"/><text class="cls-12" transform="translate(22.32 34.58)"><tspan x="0" y="0">DODO.</tspan></text></svg>