<?xml version="1.0" encoding="UTF-8"?><svg id="Layer_5" xmlns="http://www.w3.org/2000/svg" xmlns:xlink="http://www.w3.org/1999/xlink" viewBox="0 0 450 650"><defs><style>.cls-1{letter-spacing:0em;}.cls-2{stroke-width:21px;}.cls-2,.cls-3{fill:none;stroke:#fff;stroke-linecap:round;stroke-linejoin:round;}.cls-4{filter:url(#drop-shadow-1);}.cls-5{font-family:Montserrat-Black, Montserrat;font-size:64.43px;font-weight:800;}.cls-5,.cls-6{fill:#e46767;}.cls-3{stroke-width:41px;}</style><filter id="drop-shadow-1" filterUnits="userSpaceOnUse"><feOffset dx="0" dy="0"/><feGaussianBlur result="blur" stdDeviation="4"/><feFlood flood-color="#e46767" flood-opacity=".36"/><feComposite in2="blur" operator="in"/><feComposite in="SourceGraphic"/></filter></defs><rect class="cls-6" x="-11.16" y="-19.16" width="474.97" height="680.52"/><path class="cls-3" d="m179.19,293.56h22.55v11.47h-37.5v-45.1h36.66v11.47h-21.71v22.16Zm-1.03-16.88h20.1v10.95h-20.1v-10.95Z"/><path class="cls-3" d="m222.55,293.56h22.55v11.47h-37.5v-45.1h36.66v11.47h-21.71v22.16Zm-1.03-16.88h20.1v10.95h-20.1v-10.95Z"/><path class="cls-3" d="m260.76,305.03v-33.31h-13.21v-11.79h41.62v11.79h-13.21v33.31h-15.21Z"/><path class="cls-3" d="m93.69,383.38c-3.65,0-7.01-.57-10.08-1.71-3.07-1.14-5.73-2.76-7.99-4.86-2.25-2.1-4.01-4.6-5.25-7.47-1.25-2.88-1.87-6.06-1.87-9.54s.62-6.66,1.87-9.54c1.25-2.88,3.01-5.37,5.28-7.47,2.28-2.1,4.97-3.73,8.09-4.87,3.11-1.14,6.54-1.71,10.28-1.71,4.47,0,8.45.75,11.95,2.25,3.5,1.5,6.39,3.65,8.67,6.44l-9.73,8.57c-1.42-1.63-2.95-2.87-4.61-3.7-1.65-.84-3.49-1.26-5.51-1.26-1.68,0-3.19.26-4.54.77s-2.5,1.27-3.45,2.25c-.95.99-1.68,2.17-2.19,3.54-.52,1.38-.77,2.94-.77,4.7s.26,3.21.77,4.61c.52,1.4,1.25,2.59,2.19,3.58.94.99,2.07,1.75,3.38,2.29,1.31.54,2.78.81,4.41.81,1.72,0,3.39-.29,5.03-.87,1.63-.58,3.37-1.58,5.22-3l8.51,10.44c-2.75,1.85-5.89,3.26-9.41,4.25-3.52.99-6.94,1.48-10.25,1.48Zm6.44-7.67v-17.14h13.21v19.07l-13.21-1.93Z"/><path class="cls-3" d="m134.79,370.88h22.55v11.47h-37.5v-45.1h36.66v11.47h-21.71v22.17Zm-1.03-16.88h20.1v10.95h-20.1v-10.95Z"/><path class="cls-3" d="m161.6,382.34v-9.34l25.13-29.25,1.87,5.28h-26.35v-11.79h39.75v9.34l-25.13,29.25-1.87-5.28h28.03v11.79h-41.43Z"/><path class="cls-3" d="m230.86,383.38c-3.69,0-7.1-.58-10.21-1.74-3.11-1.16-5.81-2.8-8.09-4.93-2.28-2.13-4.05-4.63-5.32-7.51-1.27-2.88-1.9-6.01-1.9-9.41s.63-6.58,1.9-9.44c1.27-2.86,3.04-5.35,5.32-7.47,2.28-2.13,4.97-3.77,8.09-4.93,3.11-1.16,6.5-1.74,10.15-1.74s7.09.58,10.18,1.74c3.09,1.16,5.78,2.8,8.05,4.93,2.28,2.13,4.05,4.62,5.32,7.47,1.27,2.86,1.9,6,1.9,9.44s-.63,6.53-1.9,9.41c-1.27,2.88-3.04,5.38-5.32,7.51s-4.96,3.77-8.05,4.93c-3.09,1.16-6.47,1.74-10.12,1.74Zm-.06-12.31c1.42,0,2.74-.26,3.96-.77s2.3-1.26,3.22-2.22c.92-.97,1.64-2.15,2.16-3.54.52-1.4.77-2.97.77-4.74s-.26-3.34-.77-4.74c-.52-1.4-1.24-2.58-2.16-3.54-.93-.97-2-1.71-3.22-2.22s-2.54-.77-3.96-.77-2.74.26-3.96.77c-1.22.52-2.3,1.26-3.22,2.22-.92.97-1.64,2.15-2.16,3.54-.52,1.4-.77,2.97-.77,4.74s.26,3.34.77,4.74c.52,1.4,1.23,2.58,2.16,3.54.92.97,2,1.71,3.22,2.22,1.22.52,2.55.77,3.96.77Z"/><path class="cls-3" d="m261.79,382.34v-45.1h12.5l22.94,27.45h-5.8v-27.45h14.82v45.1h-12.5l-22.94-27.45h5.8v27.45h-14.82Z"/><path class="cls-3" d="m313.59,382.34v-45.1h22.23c5.03,0,9.45.91,13.27,2.74,3.82,1.83,6.81,4.41,8.96,7.76,2.15,3.35,3.22,7.35,3.22,11.98s-1.07,8.71-3.22,12.08c-2.15,3.37-5.13,5.97-8.96,7.8-3.82,1.83-8.25,2.74-13.27,2.74h-22.23Zm15.21-11.86h6.38c2.15,0,4.03-.41,5.64-1.22,1.61-.82,2.87-2.03,3.77-3.64.9-1.61,1.35-3.58,1.35-5.9s-.45-4.21-1.35-5.8c-.9-1.59-2.16-2.79-3.77-3.61-1.61-.82-3.49-1.22-5.64-1.22h-6.38v21.39Z"/><path class="cls-3" d="m367.46,365.08l-2.9-27.83h17.4l-2.9,27.83h-11.6Zm5.8,17.91c-2.49,0-4.53-.76-6.12-2.29-1.59-1.52-2.38-3.34-2.38-5.45s.79-3.95,2.38-5.41c1.59-1.46,3.63-2.19,6.12-2.19s4.58.73,6.15,2.19c1.57,1.46,2.35,3.26,2.35,5.41s-.78,3.92-2.35,5.45c-1.57,1.52-3.62,2.29-6.15,2.29Z"/><g class="cls-4"><path class="cls-2" d="m179.19,293.56h22.55v11.47h-37.5v-45.1h36.66v11.47h-21.71v22.16Zm-1.03-16.88h20.1v10.95h-20.1v-10.95Z"/><path class="cls-2" d="m222.55,293.56h22.55v11.47h-37.5v-45.1h36.66v11.47h-21.71v22.16Zm-1.03-16.88h20.1v10.95h-20.1v-10.95Z"/><path class="cls-2" d="m260.76,305.03v-33.31h-13.21v-11.79h41.62v11.79h-13.21v33.31h-15.21Z"/><path class="cls-2" d="m93.69,383.38c-3.65,0-7.01-.57-10.08-1.71-3.07-1.14-5.73-2.76-7.99-4.86-2.25-2.1-4.01-4.6-5.25-7.47-1.25-2.88-1.87-6.06-1.87-9.54s.62-6.66,1.87-9.54c1.25-2.88,3.01-5.37,5.28-7.47,2.28-2.1,4.97-3.73,8.09-4.87,3.11-1.14,6.54-1.71,10.28-1.71,4.47,0,8.45.75,11.95,2.25,3.5,1.5,6.39,3.65,8.67,6.44l-9.73,8.57c-1.42-1.63-2.95-2.87-4.61-3.7-1.65-.84-3.49-1.26-5.51-1.26-1.68,0-3.19.26-4.54.77s-2.5,1.27-3.45,2.25c-.95.99-1.68,2.17-2.19,3.54-.52,1.38-.77,2.94-.77,4.7s.26,3.21.77,4.61c.52,1.4,1.25,2.59,2.19,3.58.94.99,2.07,1.75,3.38,2.29,1.31.54,2.78.81,4.41.81,1.72,0,3.39-.29,5.03-.87,1.63-.58,3.37-1.58,5.22-3l8.51,10.44c-2.75,1.85-5.89,3.26-9.41,4.25-3.52.99-6.94,1.48-10.25,1.48Zm6.44-7.67v-17.14h13.21v19.07l-13.21-1.93Z"/><path class="cls-2" d="m134.79,370.88h22.55v11.47h-37.5v-45.1h36.66v11.47h-21.71v22.17Zm-1.03-16.88h20.1v10.95h-20.1v-10.95Z"/><path class="cls-2" d="m161.6,382.34v-9.34l25.13-29.25,1.87,5.28h-26.35v-11.79h39.75v9.34l-25.13,29.25-1.87-5.28h28.03v11.79h-41.43Z"/><path class="cls-2" d="m230.86,383.38c-3.69,0-7.1-.58-10.21-1.74-3.11-1.16-5.81-2.8-8.09-4.93-2.28-2.13-4.05-4.63-5.32-7.51-1.27-2.88-1.9-6.01-1.9-9.41s.63-6.58,1.9-9.44c1.27-2.86,3.04-5.35,5.32-7.47,2.28-2.13,4.97-3.77,8.09-4.93,3.11-1.16,6.5-1.74,10.15-1.74s7.09.58,10.18,1.74c3.09,1.16,5.78,2.8,8.05,4.93,2.28,2.13,4.05,4.62,5.32,7.47,1.27,2.86,1.9,6,1.9,9.44s-.63,6.53-1.9,9.41c-1.27,2.88-3.04,5.38-5.32,7.51s-4.96,3.77-8.05,4.93c-3.09,1.16-6.47,1.74-10.12,1.74Zm-.06-12.31c1.42,0,2.74-.26,3.96-.77s2.3-1.26,3.22-2.22c.92-.97,1.64-2.15,2.16-3.54.52-1.4.77-2.97.77-4.74s-.26-3.34-.77-4.74c-.52-1.4-1.24-2.58-2.16-3.54-.93-.97-2-1.71-3.22-2.22s-2.54-.77-3.96-.77-2.74.26-3.96.77c-1.22.52-2.3,1.26-3.22,2.22-.92.97-1.64,2.15-2.16,3.54-.52,1.4-.77,2.97-.77,4.74s.26,3.34.77,4.74c.52,1.4,1.23,2.58,2.16,3.54.92.97,2,1.71,3.22,2.22,1.22.52,2.55.77,3.96.77Z"/><path class="cls-2" d="m261.79,382.34v-45.1h12.5l22.94,27.45h-5.8v-27.45h14.82v45.1h-12.5l-22.94-27.45h5.8v27.45h-14.82Z"/><path class="cls-2" d="m313.59,382.34v-45.1h22.23c5.03,0,9.45.91,13.27,2.74,3.82,1.83,6.81,4.41,8.96,7.76,2.15,3.35,3.22,7.35,3.22,11.98s-1.07,8.71-3.22,12.08c-2.15,3.37-5.13,5.97-8.96,7.8-3.82,1.83-8.25,2.74-13.27,2.74h-22.23Zm15.21-11.86h6.38c2.15,0,4.03-.41,5.64-1.22,1.61-.82,2.87-2.03,3.77-3.64.9-1.61,1.35-3.58,1.35-5.9s-.45-4.21-1.35-5.8c-.9-1.59-2.16-2.79-3.77-3.61-1.61-.82-3.49-1.22-5.64-1.22h-6.38v21.39Z"/><path class="cls-2" d="m367.46,365.08l-2.9-27.83h17.4l-2.9,27.83h-11.6Zm5.8,17.91c-2.49,0-4.53-.76-6.12-2.29-1.59-1.52-2.38-3.34-2.38-5.45s.79-3.95,2.38-5.41c1.59-1.46,3.63-2.19,6.12-2.19s4.58.73,6.15,2.19c1.57,1.46,2.35,3.26,2.35,5.41s-.78,3.92-2.35,5.45c-1.57,1.52-3.62,2.29-6.15,2.29Z"/></g><text class="cls-5" transform="translate(160.57 305.03)"><tspan x="0" y="0">EET</tspan><tspan x="-93.94" y="77.32">GE</tspan><tspan class="cls-1" x="-1.03" y="77.32">Z</tspan><tspan x="42.91" y="77.32">OND!</tspan></text></svg>