<?xml version="1.0" encoding="UTF-8"?><svg id="Layer_4" xmlns="http://www.w3.org/2000/svg" xmlns:xlink="http://www.w3.org/1999/xlink" viewBox="0 0 450 650"><defs><style>.cls-1{fill:#efb560;}.cls-2{fill:#8914a5;}.cls-3{fill:url(#radial-gradient);}.cls-4{fill:#a516c4;}.cls-5{fill:#88389b;}</style><radialGradient id="radial-gradient" cx="382.4" cy="329.09" fx="382.4" fy="329.09" r="64.9" gradientUnits="userSpaceOnUse"><stop offset="0" stop-color="#c6dfed"/><stop offset="1" stop-color="#a516c4"/></radialGradient></defs><rect class="cls-1" x="-8.84" y="-179.89" width="471.87" height="865.63"/><path class="cls-2" d="m-39.79,616.9c-8.12-22.61,2.19-48.52,19.11-65.58,16.92-17.06,39.41-27.19,61.23-37.24,21.83-10.05,44.14-20.82,60.16-38.73,17.3-19.33,25.47-44.94,38.39-67.43,3.67-6.39,7.83-12.65,13.51-17.33,7.6-6.26,17.38-9.23,27.06-11,46.21-8.47,96.65,6.78,139.34-12.82,17.82-8.18,32.5-21.77,46.84-35.14,24.51-22.84,49.22-45.9,68.51-73.28,9.96-14.13,18.71-29.66,32.48-40.12h52.24v405.97H-34.65l-5.14-7.29Z"/><polygon class="cls-5" points="-34.65 624.19 1.79 657.42 555.55 505.22 510.53 461.05 -34.65 624.19"/><circle class="cls-3" cx="382.4" cy="329.09" r="64.9"/><path class="cls-4" d="m-3.35,650.12c-8.12-22.61,2.19-48.52,19.11-65.58,16.92-17.06,39.41-27.19,61.23-37.24,21.83-10.05,44.14-20.82,60.16-38.73,17.3-19.33,25.47-44.94,38.39-67.43,3.67-6.39,7.83-12.65,13.51-17.33,7.6-6.26,17.38-9.23,27.06-11,46.21-8.47,96.65,6.78,139.34-12.82,17.82-8.18,32.5-21.77,46.84-35.14,24.51-22.84,49.22-45.9,68.51-73.28,9.96-14.13,18.71-29.66,32.48-40.12h52.24v405.97H1.79l-5.14-7.29Z"/></svg>